<svg xmlns="http://www.w3.org/2000/svg" width="1000" height="520" viewBox="0 0 1000 520"><style>text{font-family:ui-monospace,monospace}.l{font:14px system-ui,sans-serif;fill:#625d54}</style><rect width="1000" height="520" fill="#fffdf8"/><g transform="translate(45,40)"><g><rect x="8" y="10" width="70" height="36" rx="18" fill="#eef1ff" stroke="#3757d5" stroke-width="2"/><text x="43" y="34" text-anchor="middle" fill="#3757d5">6</text><text class="l" x="8" y="72">Value</text></g><g transform="translate(150)"><rect x="6" y="10" width="78" height="36" rx="5" fill="#fff" stroke="#3757d5" stroke-width="2"/><text x="45" y="34" text-anchor="middle" fill="#3757d5">x</text><text class="l" x="6" y="72">Binding</text></g><g transform="translate(300)"><rect x="6" y="8" width="88" height="40" rx="5" fill="#fffaf0" stroke="#c4922f" stroke-width="2"/><rect x="2" y="4" width="96" height="48" rx="8" fill="none" stroke="#c4922f"/><text x="50" y="34" text-anchor="middle" fill="#c4922f">total</text><text class="l" x="6" y="72">State</text></g><g transform="translate(470)"><rect x="0" y="12" width="110" height="34" rx="5" fill="#fff" stroke="#3757d5" stroke-dasharray="5 4" stroke-width="2"/><path d="M27 12v34M55 12v34M82 12v34" stroke="#3757d5" opacity=".5"/><text class="l" x="0" y="72">Collection</text></g><g transform="translate(660)"><path d="M50 0v14M43 8l7 8 7-8" fill="none" stroke="#c4922f" stroke-width="3"/><rect x="0" y="24" width="100" height="28" rx="4" fill="#fff" stroke="#3757d5" stroke-dasharray="5 4"/><path d="M25 24v28M50 24v28M75 24v28" stroke="#3757d5" opacity=".5"/><text class="l" x="0" y="78">Cursor</text></g><g transform="translate(840)"><circle cx="35" cy="28" r="23" fill="none" stroke="#1e8f8f" stroke-width="2"/><path d="M35 5a23 23 0 0 1 19 11" fill="none" stroke="#1e8f8f" stroke-width="2"/><path d="M54 16l-2-8 8 3z" fill="#1e8f8f"/><text class="l" x="0" y="72">Loop</text></g><g transform="translate(0,150)"><path d="M8 10h78l-8 42H16z" fill="#fff7fc" stroke="#b23a8c" stroke-width="2"/><text x="47" y="38" text-anchor="middle" fill="#b23a8c">&lt;</text><text class="l" x="8" y="78">Compare</text></g><g transform="translate(150,150)"><path d="M46 8v18M46 26L18 52M46 26l28 26" fill="none" stroke="#b23a8c" stroke-width="3"/><text class="l" x="8" y="78">Branch</text></g><g transform="translate(300,150)"><rect x="6" y="14" width="90" height="38" rx="5" fill="#fbf8ff" stroke="#6b4fbb" stroke-width="2"/><text x="51" y="39" text-anchor="middle" fill="#6b4fbb">2 → 6</text><text class="l" x="6" y="78">Mutation</text></g><g transform="translate(470,150)"><rect x="0" y="20" width="110" height="28" rx="4" fill="#fff" stroke="#3757d5"/><path d="M18 12v44M18 12h60M18 56h60M78 12v44" fill="none" stroke="#c4922f" stroke-width="3"/><text class="l" x="0" y="78">Active range</text></g><g transform="translate(660,150)"><rect x="4" y="6" width="72" height="46" rx="6" fill="#faf8ff" stroke="#6b4fbb"/><rect x="14" y="14" width="72" height="46" rx="6" fill="#faf8ff" stroke="#6b4fbb"/><text class="l" x="0" y="86">Call frame</text></g><g transform="translate(840,150)"><rect x="0" y="4" width="34" height="24" rx="4" fill="#fff" stroke="#3757d5"/><rect x="0" y="40" width="34" height="24" rx="4" fill="#fff" stroke="#3757d5"/><rect x="68" y="22" width="34" height="28" rx="4" fill="#fffaf0" stroke="#c4922f"/><path d="M34 16L68 34M34 52L68 38" stroke="#6b4fbb" stroke-width="2"/><text class="l" x="0" y="88">Reference</text></g><g transform="translate(0,315)"><rect x="0" y="16" width="58" height="34" rx="5" fill="#f2fbf6" stroke="#2f7f58" stroke-width="2"/><path d="M58 33h34" stroke="#2f7f58" stroke-width="3"/><path d="M92 33l-10-7v14z" fill="#2f7f58"/><text class="l" x="0" y="76">Return</text></g><g transform="translate(180,315)"><rect x="20" y="16" width="58" height="34" rx="5" fill="#fff" stroke="#d98a2b" stroke-width="2"/><circle cx="49" cy="33" r="26" fill="none" stroke="#d98a2b" opacity=".45"/><text x="49" y="38" text-anchor="middle" fill="#d98a2b">print</text><text class="l" x="20" y="76">Effect</text></g><g transform="translate(380,315)"><rect x="10" y="16" width="82" height="34" rx="5" fill="#fff" stroke="#3757d5"/><text x="51" y="38" text-anchor="middle" fill="#3757d5">op</text><text class="l" x="10" y="76">Generic</text></g><g transform="translate(580,315)"><rect x="10" y="16" width="82" height="34" rx="5" fill="#fff7f2" stroke="#d9542b" stroke-width="2" stroke-dasharray="5 4"/><text x="51" y="40" text-anchor="middle" fill="#d9542b">?</text><text class="l" x="10" y="76">Unsupported</text></g></g></svg>
